<?xml version="1.0" encoding="UTF-8"?>
<!DOCTYPE svg PUBLIC "-//W3C//DTD SVG 1.1//EN" "http://www.w3.org/Graphics/SVG/1.1/DTD/svg11.dtd">
<svg xmlns="http://www.w3.org/2000/svg" version="1.1" width="512px" height="512px" style="shape-rendering:geometricPrecision; text-rendering:geometricPrecision; image-rendering:optimizeQuality; fill-rule:evenodd; clip-rule:evenodd" xmlns:xlink="http://www.w3.org/1999/xlink">
<g><path style="opacity:0.994" fill="#474747" d="M 462.5,109.5 C 434.833,109.5 407.167,109.5 379.5,109.5C 351.833,109.5 324.167,109.5 296.5,109.5C 268.833,109.5 241.167,109.5 213.5,109.5C 185.833,109.5 158.167,109.5 130.5,109.5C 103.167,109.5 75.8333,109.5 48.5,109.5C 48.3334,83.4979 48.5,57.4979 49,31.5C 52.5088,17.9912 61.0088,9.49119 74.5,6C 195.167,5.33333 315.833,5.33333 436.5,6C 450.436,9.60295 458.936,18.4363 462,32.5C 462.5,58.1645 462.667,83.8312 462.5,109.5 Z"/></g>
<g><path style="opacity:1" fill="#e5eef5" d="M 293.5,40.5 C 306.384,38.8999 314.051,44.3999 316.5,57C 313.514,73.4587 304.181,78.4587 288.5,72C 277.842,59.373 279.509,48.873 293.5,40.5 Z"/></g>
<g><path style="opacity:1" fill="#e5eef5" d="M 348.5,40.5 C 364.51,39.3448 372.01,46.6781 371,62.5C 366.58,72.9881 358.746,76.8215 347.5,74C 336.812,68.1227 333.978,59.6227 339,48.5C 341.772,45.2166 344.939,42.5499 348.5,40.5 Z"/></g>
<g><path style="opacity:1" fill="#e5eef5" d="M 403.5,40.5 C 421.19,39.3475 428.357,47.3475 425,64.5C 423.558,68.2749 421.058,71.1083 417.5,73C 402.709,77.5333 394.042,72.2 391.5,57C 392.622,49.3819 396.622,43.8819 403.5,40.5 Z"/></g>
<g><path style="opacity:0.996" fill="#475da9" d="M 48.5,109.5 C 75.8333,109.5 103.167,109.5 130.5,109.5C 121.2,120.135 111.533,130.468 101.5,140.5C 100.833,140.5 100.5,140.833 100.5,141.5C 69.1667,141.5 37.8333,141.5 6.5,141.5C 20.1918,130.481 34.1918,119.814 48.5,109.5 Z"/></g>
<g><path style="opacity:1" fill="#e7f0f7" d="M 130.5,109.5 C 158.167,109.5 185.833,109.5 213.5,109.5C 210.703,119.892 207.703,130.226 204.5,140.5C 203.833,140.5 203.5,140.833 203.5,141.5C 169.329,141.832 135.329,141.498 101.5,140.5C 111.533,130.468 121.2,120.135 130.5,109.5 Z"/></g>
<g><path style="opacity:1" fill="#475da9" d="M 213.5,109.5 C 241.167,109.5 268.833,109.5 296.5,109.5C 300.03,120.091 303.363,130.757 306.5,141.5C 272.329,141.832 238.329,141.498 204.5,140.5C 207.703,130.226 210.703,119.892 213.5,109.5 Z"/></g>
<g><path style="opacity:1" fill="#e7f0f7" d="M 296.5,109.5 C 324.167,109.5 351.833,109.5 379.5,109.5C 389.527,119.86 399.527,130.193 409.5,140.5C 375.337,141.498 341.004,141.832 306.5,141.5C 303.363,130.757 300.03,120.091 296.5,109.5 Z"/></g>
<g><path style="opacity:0.996" fill="#475da9" d="M 379.5,109.5 C 407.167,109.5 434.833,109.5 462.5,109.5C 476.808,119.814 490.808,130.481 504.5,141.5C 473.167,141.5 441.833,141.5 410.5,141.5C 410.5,140.833 410.167,140.5 409.5,140.5C 399.527,130.193 389.527,119.86 379.5,109.5 Z"/></g>
<g><path style="opacity:1" fill="#7a8bc2" d="M 5.5,142.5 C 5.5,141.833 5.83333,141.5 6.5,141.5C 37.8333,141.5 69.1667,141.5 100.5,141.5C 100.5,141.833 100.5,142.167 100.5,142.5C 100.5,145.833 100.5,149.167 100.5,152.5C 99.5206,149.375 99.1872,146.042 99.5,142.5C 68.1667,142.5 36.8333,142.5 5.5,142.5 Z"/></g>
<g><path style="opacity:1" fill="#bcc9e2" d="M 101.5,140.5 C 135.329,141.498 169.329,141.832 203.5,141.5C 203.5,141.833 203.5,142.167 203.5,142.5C 169.167,142.5 134.833,142.5 100.5,142.5C 100.5,142.167 100.5,141.833 100.5,141.5C 100.5,140.833 100.833,140.5 101.5,140.5 Z"/></g>
<g><path style="opacity:1" fill="#8293c6" d="M 204.5,140.5 C 238.329,141.498 272.329,141.832 306.5,141.5C 272.337,142.498 238.004,142.832 203.5,142.5C 203.5,142.167 203.5,141.833 203.5,141.5C 203.5,140.833 203.833,140.5 204.5,140.5 Z"/></g>
<g><path style="opacity:1" fill="#788abf" d="M 410.5,141.5 C 441.833,141.5 473.167,141.5 504.5,141.5C 505.167,141.5 505.5,141.833 505.5,142.5C 474.167,142.5 442.833,142.5 411.5,142.5C 411.817,146.702 411.483,150.702 410.5,154.5C 410.5,150.5 410.5,146.5 410.5,142.5C 410.5,142.167 410.5,141.833 410.5,141.5 Z"/></g>
<g><path style="opacity:0.993" fill="#acbadf" d="M 5.5,142.5 C 36.8333,142.5 68.1667,142.5 99.5,142.5C 99.1872,146.042 99.5206,149.375 100.5,152.5C 100.5,154.167 100.5,155.833 100.5,157.5C 96.0647,187.262 78.7314,202.596 48.5,203.5C 25.5715,200.072 11.4048,187.072 6,164.5C 5.50034,157.174 5.33368,149.841 5.5,142.5 Z"/></g>
<g><path style="opacity:1" fill="#475da9" d="M 100.5,142.5 C 134.833,142.5 169.167,142.5 203.5,142.5C 203.5,147.5 203.5,152.5 203.5,157.5C 197.779,186.043 180.279,201.376 151,203.5C 126.984,201.327 110.651,188.994 102,166.5C 101.047,163.568 100.547,160.568 100.5,157.5C 100.5,155.833 100.5,154.167 100.5,152.5C 100.5,149.167 100.5,145.833 100.5,142.5 Z"/></g>
<g><path style="opacity:1" fill="#acbadf" d="M 409.5,140.5 C 410.167,140.5 410.5,140.833 410.5,141.5C 410.5,141.833 410.5,142.167 410.5,142.5C 376.167,142.5 341.833,142.5 307.5,142.5C 307.5,147.5 307.5,152.5 307.5,157.5C 301.639,185.882 284.139,201.215 255,203.5C 226.674,200.453 209.507,185.119 203.5,157.5C 203.5,152.5 203.5,147.5 203.5,142.5C 238.004,142.832 272.337,142.498 306.5,141.5C 341.004,141.832 375.337,141.498 409.5,140.5 Z"/></g>
<g><path style="opacity:1" fill="#475da9" d="M 410.5,142.5 C 410.5,146.5 410.5,150.5 410.5,154.5C 410.5,155.5 410.5,156.5 410.5,157.5C 409.048,169.066 404.382,179.066 396.5,187.5C 369.789,209.7 343.956,208.7 319,184.5C 313.096,176.259 309.262,167.259 307.5,157.5C 307.5,152.5 307.5,147.5 307.5,142.5C 341.833,142.5 376.167,142.5 410.5,142.5 Z"/></g>
<g><path style="opacity:0.993" fill="#acbadf" d="M 505.5,142.5 C 509.045,166.223 501.045,184.723 481.5,198C 475.479,200.922 469.146,202.755 462.5,203.5C 432.291,202.62 414.958,187.287 410.5,157.5C 410.5,156.5 410.5,155.5 410.5,154.5C 411.483,150.702 411.817,146.702 411.5,142.5C 442.833,142.5 474.167,142.5 505.5,142.5 Z"/></g>
<g><path style="opacity:0.998" fill="#e7f0f7" d="M 100.5,157.5 C 100.547,160.568 101.047,163.568 102,166.5C 110.651,188.994 126.984,201.327 151,203.5C 180.279,201.376 197.779,186.043 203.5,157.5C 209.507,185.119 226.674,200.453 255,203.5C 284.139,201.215 301.639,185.882 307.5,157.5C 309.262,167.259 313.096,176.259 319,184.5C 343.956,208.7 369.789,209.7 396.5,187.5C 397.496,187.414 398.329,187.748 399,188.5C 417.175,247.923 410.842,304.59 380,358.5C 375.209,366.438 369.709,373.772 363.5,380.5C 363.667,357.164 363.5,333.831 363,310.5C 361.078,301.156 356.912,292.989 350.5,286C 340.88,279.212 330.88,273.045 320.5,267.5C 305.031,258.931 289.697,250.098 274.5,241C 260.998,234.731 247.665,235.064 234.5,242C 211.664,255.586 188.664,268.919 165.5,282C 156.565,288.681 150.732,297.515 148,308.5C 147.197,339.856 147.363,371.19 148.5,402.5C 151.188,412.362 156.522,420.529 164.5,427C 180.861,436.512 197.194,446.012 213.5,455.5C 164.697,458.794 120.697,445.627 81.5,416C 70.0291,406.363 59.0291,396.196 48.5,385.5C 48.5,324.833 48.5,264.167 48.5,203.5C 78.7314,202.596 96.0647,187.262 100.5,157.5 Z"/></g>
<g><path style="opacity:0.994" fill="#cdd4da" d="M 410.5,157.5 C 414.958,187.287 432.291,202.62 462.5,203.5C 462.667,295.167 462.5,386.834 462,478.5C 459.166,490.667 451.999,499.167 440.5,504C 378.877,505.159 317.21,505.659 255.5,505.5C 193.79,505.659 132.123,505.159 70.5,504C 59.0011,499.167 51.8344,490.667 49,478.5C 48.5,447.502 48.3334,416.502 48.5,385.5C 59.0291,396.196 70.0291,406.363 81.5,416C 120.697,445.627 164.697,458.794 213.5,455.5C 223.732,461.783 234.399,467.283 245.5,472C 255.117,473.338 264.45,472.338 273.5,469C 297.997,455.253 322.33,441.253 346.5,427C 360.43,414.619 366.097,399.119 363.5,380.5C 369.709,373.772 375.209,366.438 380,358.5C 410.842,304.59 417.175,247.923 399,188.5C 398.329,187.748 397.496,187.414 396.5,187.5C 404.382,179.066 409.048,169.066 410.5,157.5 Z"/></g>
<g><path style="opacity:1" fill="#f68722" d="M 320.5,267.5 C 325.662,286.739 325.828,306.072 321,325.5C 309.735,326.157 298.569,326.823 287.5,327.5C 282.696,330.212 282.363,333.378 286.5,337C 290.821,337.499 295.154,337.666 299.5,337.5C 299.5,348.5 299.5,359.5 299.5,370.5C 264.474,410.005 221.141,423.505 169.5,411C 162.276,408.649 155.276,405.816 148.5,402.5C 147.363,371.19 147.197,339.856 148,308.5C 150.732,297.515 156.565,288.681 165.5,282C 188.664,268.919 211.664,255.586 234.5,242C 247.665,235.064 260.998,234.731 274.5,241C 289.697,250.098 305.031,258.931 320.5,267.5 Z"/></g>
<g><path style="opacity:1" fill="#da771d" d="M 320.5,267.5 C 330.88,273.045 340.88,279.212 350.5,286C 356.912,292.989 361.078,301.156 363,310.5C 363.5,333.831 363.667,357.164 363.5,380.5C 366.097,399.119 360.43,414.619 346.5,427C 322.33,441.253 297.997,455.253 273.5,469C 264.45,472.338 255.117,473.338 245.5,472C 234.399,467.283 223.732,461.783 213.5,455.5C 197.194,446.012 180.861,436.512 164.5,427C 156.522,420.529 151.188,412.362 148.5,402.5C 155.276,405.816 162.276,408.649 169.5,411C 221.141,423.505 264.474,410.005 299.5,370.5C 299.335,373.518 299.502,376.518 300,379.5C 303.745,383.566 307.078,383.233 310,378.5C 310.5,364.837 310.667,351.171 310.5,337.5C 314.846,337.666 319.179,337.499 323.5,337C 326.167,334 326.167,331 323.5,328C 311.505,327.5 299.505,327.333 287.5,327.5C 298.569,326.823 309.735,326.157 321,325.5C 325.828,306.072 325.662,286.739 320.5,267.5 Z"/></g>
<g><path style="opacity:1" fill="#e8eef2" d="M 187.5,327.5 C 190.157,327.162 192.49,327.829 194.5,329.5C 201,339.167 207.5,348.833 214,358.5C 214.333,348.833 214.667,339.167 215,329.5C 218,326.833 221,326.833 224,329.5C 224.667,346.167 224.667,362.833 224,379.5C 221.374,383.072 218.374,383.405 215,380.5C 208.915,370.662 202.582,360.996 196,351.5C 195.667,360.833 195.333,370.167 195,379.5C 192.294,382.978 189.294,383.311 186,380.5C 184.363,363.925 184.03,347.258 185,330.5C 186.045,329.627 186.878,328.627 187.5,327.5 Z"/></g>
<g><path style="opacity:1" fill="#e8eff5" d="M 268.5,337.5 C 262.5,337.5 256.5,337.5 250.5,337.5C 250.183,341.702 250.517,345.702 251.5,349.5C 257.509,349.334 263.509,349.501 269.5,350C 273.436,353.159 273.436,356.492 269.5,360C 263.175,360.5 256.842,360.666 250.5,360.5C 250.666,366.842 250.5,373.175 250,379.5C 247.374,383.072 244.374,383.405 241,380.5C 240.333,363.5 240.333,346.5 241,329.5C 241.5,329 242,328.5 242.5,328C 251.833,327.333 261.167,327.333 270.5,328C 272.444,330.153 272.944,332.653 272,335.5C 271.184,336.823 270.017,337.489 268.5,337.5 Z"/></g>
<g><path style="opacity:1" fill="#e8eef3" d="M 287.5,327.5 C 299.505,327.333 311.505,327.5 323.5,328C 326.167,331 326.167,334 323.5,337C 319.179,337.499 314.846,337.666 310.5,337.5C 310.667,351.171 310.5,364.837 310,378.5C 307.078,383.233 303.745,383.566 300,379.5C 299.502,376.518 299.335,373.518 299.5,370.5C 299.5,359.5 299.5,348.5 299.5,337.5C 295.154,337.666 290.821,337.499 286.5,337C 282.363,333.378 282.696,330.212 287.5,327.5 Z"/></g>
<g><path style="opacity:1" fill="#f2a662" d="M 268.5,337.5 C 263.025,338.489 257.358,338.822 251.5,338.5C 251.5,342.167 251.5,345.833 251.5,349.5C 250.517,345.702 250.183,341.702 250.5,337.5C 256.5,337.5 262.5,337.5 268.5,337.5 Z"/></g>
</svg>
